<?xml version="1.0" encoding="UTF-8" standalone="no"?>
<svg width="36px" height="60px" viewBox="0 0 36 60" version="1.1" xmlns="http://www.w3.org/2000/svg" xmlns:xlink="http://www.w3.org/1999/xlink" xmlns:sketch="http://www.bohemiancoding.com/sketch/ns">
    <!-- Generator: Sketch 3.1.1 (8761) - http://www.bohemiancoding.com/sketch -->
    <title>arrow</title>
    <desc>Created with Sketch.</desc>
    <defs></defs>
    <g id="Page-1" stroke="none" stroke-width="1" fill="none" fill-rule="evenodd" sketch:type="MSPage">
        <g id="arrow" sketch:type="MSLayerGroup" fill="#FFFFFF">
            <path d="M5.781,57.586 L2.195,54 L25.488,30.707 C25.879,30.316 25.879,29.684 25.488,29.293 L2.195,6 L5.781,2.414 L33.367,30 L5.781,57.586 L5.781,57.586 Z M35.488,29.293 L6.488,0.293 C6.097,-0.098 5.465,-0.098 5.074,0.293 L0.074,5.293 C-0.317,5.684 -0.317,6.316 0.074,6.707 L23.367,30 L0.074,53.293 C-0.317,53.684 -0.317,54.316 0.074,54.707 L5.074,59.707 C5.269,59.902 5.525,60 5.781,60 C6.037,60 6.293,59.902 6.488,59.707 L35.488,30.707 C35.879,30.316 35.879,29.684 35.488,29.293 L35.488,29.293 Z" sketch:type="MSShapeGroup"></path>
        </g>
    </g>
</svg>