<?xml version="1.0" encoding="UTF-8" standalone="no"?>
<svg width="61px" height="60px" viewBox="0 0 61 60" version="1.1" xmlns="http://www.w3.org/2000/svg" xmlns:xlink="http://www.w3.org/1999/xlink" xmlns:sketch="http://www.bohemiancoding.com/sketch/ns">
    <!-- Generator: Sketch 3.1.1 (8761) - http://www.bohemiancoding.com/sketch -->
    <title>camera</title>
    <desc>Created with Sketch.</desc>
    <defs></defs>
    <g id="Page-1" stroke="none" stroke-width="1" fill="none" fill-rule="evenodd" sketch:type="MSPage">
        <g id="camera" sketch:type="MSLayerGroup" fill="#FFFFFF">
            <path d="M30.781,35 C28.024,35 25.781,32.757 25.781,30 C25.781,27.243 28.024,25 30.781,25 C33.538,25 35.781,27.243 35.781,30 C35.781,32.757 33.538,35 30.781,35 L30.781,35 Z M30.781,23 C26.921,23 23.781,26.141 23.781,30 C23.781,33.859 26.921,37 30.781,37 C34.641,37 37.781,33.859 37.781,30 C37.781,26.141 34.641,23 30.781,23 L30.781,23 Z" id="Fill-4" sketch:type="MSShapeGroup"></path>
            <path d="M48.781,38 C48.781,39.103 47.884,40 46.781,40 L14.781,40 C13.678,40 12.781,39.103 12.781,38 L12.781,24 C12.781,22.897 13.678,22 14.781,22 L21.955,22 C22.341,22 22.666,21.775 22.833,21.454 L27.338,18 L34.224,18 L38.729,21.454 C38.896,21.775 39.221,22 39.607,22 L46.781,22 C47.884,22 48.781,22.897 48.781,24 L48.781,38 L48.781,38 Z M46.781,20 L40.121,20 L35.172,16.206 C34.998,16.072 34.784,16 34.564,16 L26.998,16 C26.778,16 26.564,16.072 26.39,16.206 L21.441,20 L14.781,20 C12.575,20 10.781,21.794 10.781,24 L10.781,38 C10.781,40.206 12.575,42 14.781,42 L46.781,42 C48.987,42 50.781,40.206 50.781,38 L50.781,24 C50.781,21.794 48.987,20 46.781,20 L46.781,20 Z" id="Fill-5" sketch:type="MSShapeGroup"></path>
            <path d="M44.651,23.956 C44.097,23.956 43.651,24.403 43.651,24.956 C43.651,25.509 44.097,25.956 44.651,25.956 C45.203,25.956 45.651,25.509 45.651,24.956 C45.651,24.403 45.203,23.956 44.651,23.956" id="Fill-6" sketch:type="MSShapeGroup"></path>
            <path d="M30.781,58 C15.341,58 2.781,45.44 2.781,30 C2.781,14.561 15.341,2 30.781,2 C46.22,2 58.781,14.561 58.781,30 C58.781,45.44 46.22,58 30.781,58 L30.781,58 Z M30.781,0 C14.239,0 0.781,13.458 0.781,30 C0.781,46.542 14.239,60 30.781,60 C47.323,60 60.781,46.542 60.781,30 C60.781,13.458 47.323,0 30.781,0 L30.781,0 Z" id="Fill-8" sketch:type="MSShapeGroup"></path>
        </g>
    </g>
</svg>