<?xml version="1.0" encoding="UTF-8" standalone="no"?>
<svg width="12px" height="10px" viewBox="0 0 12 10" version="1.1" xmlns="http://www.w3.org/2000/svg" xmlns:xlink="http://www.w3.org/1999/xlink" xmlns:sketch="http://www.bohemiancoding.com/sketch/ns">
    <!-- Generator: Sketch 3.3.3 (12081) - http://www.bohemiancoding.com/sketch -->
    <title>Right_4</title>
    <desc>Created with Sketch.</desc>
    <defs></defs>
    <g id="Page-1" stroke="none" stroke-width="1" fill="none" fill-rule="evenodd" sketch:type="MSPage">
        <g id="Form--k" sketch:type="MSArtboardGroup" transform="translate(-1162.000000, -450.000000)" fill="#161925">
            <g id="right-4" sketch:type="MSLayerGroup" transform="translate(1162.000000, 450.000000)">
                <path d="M0.5,6.00025 L8.484,6.00025 L6.142,8.42025 C5.953,8.61725 5.953,8.93825 6.142,9.13525 L6.826,9.85225 C7.014,10.04925 7.32,10.04925 7.51,9.85225 L11.86,5.34625 C12.048,5.14725 12.048,4.82625 11.86,4.62925 L7.538,0.14925 C7.349,-0.04975 7.042,-0.04975 6.854,0.14925 L6.17,0.86525 C5.981,1.06225 5.981,1.38425 6.17,1.58125 L8.511,4.00025 L0.5,4.00025 C0.224,4.00025 0,4.22325 0,4.50025 L0,5.50025 C0,5.77525 0.224,6.00025 0.5,6.00025 L0.5,6.00025 Z" id="Right_4" sketch:type="MSShapeGroup"></path>
            </g>
        </g>
    </g>
</svg>