<?xml version="1.0" encoding="UTF-8" standalone="no"?>
<svg width="12px" height="10px" viewBox="0 0 12 10" version="1.1" xmlns="http://www.w3.org/2000/svg" xmlns:xlink="http://www.w3.org/1999/xlink" xmlns:sketch="http://www.bohemiancoding.com/sketch/ns">
    <!-- Generator: Sketch 3.3.3 (12081) - http://www.bohemiancoding.com/sketch -->
    <title>Right_4</title>
    <desc>Created with Sketch.</desc>
    <defs></defs>
    <g id="Page-1" stroke="none" stroke-width="1" fill="none" fill-rule="evenodd" sketch:type="MSPage">
        <g id="Twerk" sketch:type="MSArtboardGroup" transform="translate(-398.000000, -615.000000)" fill="#FFFFFF">
            <g id="Group" sketch:type="MSLayerGroup" transform="translate(135.000000, 201.000000)">
                <g transform="translate(42.000000, 41.000000)" id="VIEW-PROJECT-ON-DRIB-+-Right_4" sketch:type="MSShapeGroup">
                    <g transform="translate(0.000000, 370.000000)">
                        <path d="M221.5,9.00025 L229.484,9.00025 L227.142,11.42025 C226.953,11.61725 226.953,11.93825 227.142,12.13525 L227.826,12.85225 C228.014,13.04925 228.32,13.04925 228.51,12.85225 L232.86,8.34625 C233.048,8.14725 233.048,7.82625 232.86,7.62925 L228.538,3.14925 C228.349,2.95025 228.042,2.95025 227.854,3.14925 L227.17,3.86525 C226.981,4.06225 226.981,4.38425 227.17,4.58125 L229.511,7.00025 L221.5,7.00025 C221.224,7.00025 221,7.22325 221,7.50025 L221,8.50025 C221,8.77525 221.224,9.00025 221.5,9.00025 L221.5,9.00025 Z" id="Right_4"></path>
                    </g>
                </g>
            </g>
        </g>
    </g>
</svg>