<?xml version="1.0" encoding="UTF-8" standalone="no"?>
<svg width="13px" height="13px" viewBox="0 0 13 13" version="1.1" xmlns="http://www.w3.org/2000/svg" xmlns:xlink="http://www.w3.org/1999/xlink" xmlns:sketch="http://www.bohemiancoding.com/sketch/ns">
    <!-- Generator: Sketch 3.3.3 (12081) - http://www.bohemiancoding.com/sketch -->
    <title>X_1</title>
    <desc>Created with Sketch.</desc>
    <defs></defs>
    <g id="Page-1" stroke="none" stroke-width="1" fill="none" fill-rule="evenodd" sketch:type="MSPage">
        <g id="Form--k" sketch:type="MSArtboardGroup" transform="translate(-1271.000000, -71.000000)" fill="#FFFFFF" opacity="0.799999952">
            <g id="x-1" sketch:type="MSLayerGroup" transform="translate(1271.000000, 71.000000)">
                <path d="M11.8486964,9.7347269 L8.1493432,6.03387838 L11.8501917,2.33302986 C12.143269,2.04144785 12.143269,1.56744019 11.8501917,1.27585818 L10.7915248,0.218686503 C10.4999427,-0.0728955011 10.0259351,-0.0728955011 9.73435307,0.218686503 L6.03499985,3.91953502 L2.33415133,0.218686503 C2.04256932,-0.0728955011 1.56856166,-0.0728955011 1.27697965,0.218686503 L0.219807973,1.27735347 C-0.0732693242,1.56893548 -0.0732693242,2.04294315 0.219807973,2.33452515 L3.92065649,6.03537367 L0.219807973,9.7347269 C-0.0732693242,10.0263089 -0.0732693242,10.5003166 0.219807973,10.7918986 L1.27697965,11.8490703 C1.56856166,12.1406523 2.04256932,12.1406523 2.33415133,11.8490703 L6.03499985,8.14822173 L9.73435307,11.8490703 C10.0259351,12.1406523 10.4999427,12.1406523 10.7915248,11.8490703 L11.8486964,10.7918986 C12.143269,10.4988213 12.143269,10.0263089 11.8486964,9.7347269 L11.8486964,9.7347269 Z" id="X_1" sketch:type="MSShapeGroup"></path>
            </g>
        </g>
    </g>
</svg>